<svg xmlns="http://www.w3.org/2000/svg" version="1.1" xmlns:xlink="http://www.w3.org/1999/xlink" xmlns:svgjs="http://svgjs.com/svgjs" width="1920" height="540" preserveAspectRatio="none" viewBox="0 0 1920 540"><g mask="url(&quot;#SvgjsMask1046&quot;)" fill="none"><path d="M-38.89 392.9L-38.89 392.9" stroke="rgba(81, 83, 88, 1)" stroke-width="1.5"></path><path d="M-38.89 392.9L-77.93 495.37" stroke="rgba(81, 83, 88, 1)" stroke-width="1.5"></path><path d="M-38.89 392.9L76.03 362.08" stroke="rgba(81, 83, 88, 1)" stroke-width="1.5"></path><path d="M-38.89 392.9L38.2 558.53" stroke="rgba(81, 83, 88, 1)" stroke-width="1.5"></path><path d="M-38.89 392.9L-94.79 656.95" stroke="rgba(81, 83, 88, 1)" stroke-width="1.5"></path><path d="M-38.89 392.9L65.22 645.56" stroke="rgba(81, 83, 88, 1)" stroke-width="1.5"></path><path d="M-38.89 392.9L207.89 512.99" stroke="rgba(81, 83, 88, 1)" stroke-width="1.5"></path><path d="M-77.93 495.37L-77.93 495.37" stroke="rgba(81, 83, 88, 1)" stroke-width="1.5"></path><path d="M-77.93 495.37L38.2 558.53" stroke="rgba(81, 83, 88, 1)" stroke-width="1.5"></path><path d="M-77.93 495.37L-94.79 656.95" stroke="rgba(81, 83, 88, 1)" stroke-width="1.5"></path><path d="M-77.93 495.37L76.03 362.08" stroke="rgba(81, 83, 88, 1)" stroke-width="1.5"></path><path d="M-77.93 495.37L65.22 645.56" stroke="rgba(81, 83, 88, 1)" stroke-width="1.5"></path><path d="M-77.93 495.37L207.89 512.99" stroke="rgba(81, 83, 88, 1)" stroke-width="1.5"></path><path d="M-94.79 656.95L-94.79 656.95" stroke="rgba(81, 83, 88, 1)" stroke-width="1.5"></path><path d="M-94.79 656.95L65.22 645.56" stroke="rgba(81, 83, 88, 1)" stroke-width="1.5"></path><path d="M-94.79 656.95L38.2 558.53" stroke="rgba(81, 83, 88, 1)" stroke-width="1.5"></path><path d="M76.03 362.08L76.03 362.08" stroke="rgba(81, 83, 88, 1)" stroke-width="1.5"></path><path d="M76.03 362.08L38.2 558.53" stroke="rgba(81, 83, 88, 1)" stroke-width="1.5"></path><path d="M76.03 362.08L207.89 512.99" stroke="rgba(81, 83, 88, 1)" stroke-width="1.5"></path><path d="M38.2 558.53L38.2 558.53" stroke="rgba(81, 83, 88, 1)" stroke-width="1.5"></path><path d="M38.2 558.53L65.22 645.56" stroke="rgba(81, 83, 88, 1)" stroke-width="1.5"></path><path d="M38.2 558.53L207.89 512.99" stroke="rgba(81, 83, 88, 1)" stroke-width="1.5"></path><path d="M65.22 645.56L65.22 645.56" stroke="rgba(81, 83, 88, 1)" stroke-width="1.5"></path><path d="M65.22 645.56L240.77 693.46" stroke="rgba(81, 83, 88, 1)" stroke-width="1.5"></path><path d="M65.22 645.56L207.89 512.99" stroke="rgba(81, 83, 88, 1)" stroke-width="1.5"></path><path d="M207.89 512.99L207.89 512.99" stroke="rgba(81, 83, 88, 1)" stroke-width="1.5"></path><path d="M207.89 512.99L385.56 510.01" stroke="rgba(81, 83, 88, 1)" stroke-width="1.5"></path><path d="M207.89 512.99L240.77 693.46" stroke="rgba(81, 83, 88, 1)" stroke-width="1.5"></path><path d="M240.77 693.46L240.77 693.46" stroke="rgba(81, 83, 88, 1)" stroke-width="1.5"></path><path d="M240.77 693.46L402.73 702.01" stroke="rgba(81, 83, 88, 1)" stroke-width="1.5"></path><path d="M240.77 693.46L385.56 510.01" stroke="rgba(81, 83, 88, 1)" stroke-width="1.5"></path><path d="M240.77 693.46L38.2 558.53" stroke="rgba(81, 83, 88, 1)" stroke-width="1.5"></path><path d="M240.77 693.46L530.95 659.65" stroke="rgba(81, 83, 88, 1)" stroke-width="1.5"></path><path d="M409.99 396.61L409.99 396.61" stroke="rgba(81, 83, 88, 1)" stroke-width="1.5"></path><path d="M409.99 396.61L511.55 398.83" stroke="rgba(81, 83, 88, 1)" stroke-width="1.5"></path><path d="M409.99 396.61L385.56 510.01" stroke="rgba(81, 83, 88, 1)" stroke-width="1.5"></path><path d="M409.99 396.61L559.64 504.55" stroke="rgba(81, 83, 88, 1)" stroke-width="1.5"></path><path d="M409.99 396.61L207.89 512.99" stroke="rgba(81, 83, 88, 1)" stroke-width="1.5"></path><path d="M385.56 510.01L385.56 510.01" stroke="rgba(81, 83, 88, 1)" stroke-width="1.5"></path><path d="M385.56 510.01L511.55 398.83" stroke="rgba(81, 83, 88, 1)" stroke-width="1.5"></path><path d="M385.56 510.01L559.64 504.55" stroke="rgba(81, 83, 88, 1)" stroke-width="1.5"></path><path d="M385.56 510.01L402.73 702.01" stroke="rgba(81, 83, 88, 1)" stroke-width="1.5"></path><path d="M402.73 702.01L402.73 702.01" stroke="rgba(81, 83, 88, 1)" stroke-width="1.5"></path><path d="M402.73 702.01L530.95 659.65" stroke="rgba(81, 83, 88, 1)" stroke-width="1.5"></path><path d="M402.73 702.01L559.64 504.55" stroke="rgba(81, 83, 88, 1)" stroke-width="1.5"></path><path d="M402.73 702.01L207.89 512.99" stroke="rgba(81, 83, 88, 1)" stroke-width="1.5"></path><path d="M402.73 702.01L409.99 396.61" stroke="rgba(81, 83, 88, 1)" stroke-width="1.5"></path><path d="M511.55 398.83L511.55 398.83" stroke="rgba(81, 83, 88, 1)" stroke-width="1.5"></path><path d="M511.55 398.83L559.64 504.55" stroke="rgba(81, 83, 88, 1)" stroke-width="1.5"></path><path d="M511.55 398.83L699.4 410.48" stroke="rgba(81, 83, 88, 1)" stroke-width="1.5"></path><path d="M511.55 398.83L694.66 522.39" stroke="rgba(81, 83, 88, 1)" stroke-width="1.5"></path><path d="M511.55 398.83L530.95 659.65" stroke="rgba(81, 83, 88, 1)" stroke-width="1.5"></path><path d="M559.64 504.55L559.64 504.55" stroke="rgba(81, 83, 88, 1)" stroke-width="1.5"></path><path d="M559.64 504.55L694.66 522.39" stroke="rgba(81, 83, 88, 1)" stroke-width="1.5"></path><path d="M530.95 659.65L530.95 659.65" stroke="rgba(81, 83, 88, 1)" stroke-width="1.5"></path><path d="M530.95 659.65L559.64 504.55" stroke="rgba(81, 83, 88, 1)" stroke-width="1.5"></path><path d="M530.95 659.65L385.56 510.01" stroke="rgba(81, 83, 88, 1)" stroke-width="1.5"></path><path d="M530.95 659.65L694.66 522.39" stroke="rgba(81, 83, 88, 1)" stroke-width="1.5"></path><path d="M530.95 659.65L814.05 695.32" stroke="rgba(81, 83, 88, 1)" stroke-width="1.5"></path><path d="M699.4 410.48L699.4 410.48" stroke="rgba(81, 83, 88, 1)" stroke-width="1.5"></path><path d="M699.4 410.48L694.66 522.39" stroke="rgba(81, 83, 88, 1)" stroke-width="1.5"></path><path d="M699.4 410.48L808.53 509.44" stroke="rgba(81, 83, 88, 1)" stroke-width="1.5"></path><path d="M699.4 410.48L846.56 382.87" stroke="rgba(81, 83, 88, 1)" stroke-width="1.5"></path><path d="M699.4 410.48L559.64 504.55" stroke="rgba(81, 83, 88, 1)" stroke-width="1.5"></path><path d="M694.66 522.39L694.66 522.39" stroke="rgba(81, 83, 88, 1)" stroke-width="1.5"></path><path d="M694.66 522.39L808.53 509.44" stroke="rgba(81, 83, 88, 1)" stroke-width="1.5"></path><path d="M846.56 382.87L846.56 382.87" stroke="rgba(81, 83, 88, 1)" stroke-width="1.5"></path><path d="M846.56 382.87L951.11 377.22" stroke="rgba(81, 83, 88, 1)" stroke-width="1.5"></path><path d="M846.56 382.87L808.53 509.44" stroke="rgba(81, 83, 88, 1)" stroke-width="1.5"></path><path d="M808.53 509.44L808.53 509.44" stroke="rgba(81, 83, 88, 1)" stroke-width="1.5"></path><path d="M808.53 509.44L975.93 515.82" stroke="rgba(81, 83, 88, 1)" stroke-width="1.5"></path><path d="M808.53 509.44L814.05 695.32" stroke="rgba(81, 83, 88, 1)" stroke-width="1.5"></path><path d="M808.53 509.44L951.11 377.22" stroke="rgba(81, 83, 88, 1)" stroke-width="1.5"></path><path d="M814.05 695.32L814.05 695.32" stroke="rgba(81, 83, 88, 1)" stroke-width="1.5"></path><path d="M814.05 695.32L967.38 704.73" stroke="rgba(81, 83, 88, 1)" stroke-width="1.5"></path><path d="M995.96 197.99L995.96 197.99" stroke="rgba(81, 83, 88, 1)" stroke-width="1.5"></path><path d="M995.96 197.99L951.11 377.22" stroke="rgba(81, 83, 88, 1)" stroke-width="1.5"></path><path d="M995.96 197.99L1136.31 365.9" stroke="rgba(81, 83, 88, 1)" stroke-width="1.5"></path><path d="M995.96 197.99L846.56 382.87" stroke="rgba(81, 83, 88, 1)" stroke-width="1.5"></path><path d="M995.96 197.99L1271.01 191.23" stroke="rgba(81, 83, 88, 1)" stroke-width="1.5"></path><path d="M995.96 197.99L975.93 515.82" stroke="rgba(81, 83, 88, 1)" stroke-width="1.5"></path><path d="M951.11 377.22L951.11 377.22" stroke="rgba(81, 83, 88, 1)" stroke-width="1.5"></path><path d="M951.11 377.22L975.93 515.82" stroke="rgba(81, 83, 88, 1)" stroke-width="1.5"></path><path d="M975.93 515.82L975.93 515.82" stroke="rgba(81, 83, 88, 1)" stroke-width="1.5"></path><path d="M975.93 515.82L1148.84 559.93" stroke="rgba(81, 83, 88, 1)" stroke-width="1.5"></path><path d="M975.93 515.82L846.56 382.87" stroke="rgba(81, 83, 88, 1)" stroke-width="1.5"></path><path d="M967.38 704.73L967.38 704.73" stroke="rgba(81, 83, 88, 1)" stroke-width="1.5"></path><path d="M967.38 704.73L1088.59 691.98" stroke="rgba(81, 83, 88, 1)" stroke-width="1.5"></path><path d="M1136.31 365.9L1136.31 365.9" stroke="rgba(81, 83, 88, 1)" stroke-width="1.5"></path><path d="M1136.31 365.9L1292.26 406.85" stroke="rgba(81, 83, 88, 1)" stroke-width="1.5"></path><path d="M1136.31 365.9L951.11 377.22" stroke="rgba(81, 83, 88, 1)" stroke-width="1.5"></path><path d="M1136.31 365.9L1148.84 559.93" stroke="rgba(81, 83, 88, 1)" stroke-width="1.5"></path><path d="M1136.31 365.9L1255.05 537.7" stroke="rgba(81, 83, 88, 1)" stroke-width="1.5"></path><path d="M1136.31 365.9L975.93 515.82" stroke="rgba(81, 83, 88, 1)" stroke-width="1.5"></path><path d="M1148.84 559.93L1148.84 559.93" stroke="rgba(81, 83, 88, 1)" stroke-width="1.5"></path><path d="M1148.84 559.93L1255.05 537.7" stroke="rgba(81, 83, 88, 1)" stroke-width="1.5"></path><path d="M1148.84 559.93L1088.59 691.98" stroke="rgba(81, 83, 88, 1)" stroke-width="1.5"></path><path d="M1088.59 691.98L1088.59 691.98" stroke="rgba(81, 83, 88, 1)" stroke-width="1.5"></path><path d="M1088.59 691.98L975.93 515.82" stroke="rgba(81, 83, 88, 1)" stroke-width="1.5"></path><path d="M1088.59 691.98L1309.87 654.07" stroke="rgba(81, 83, 88, 1)" stroke-width="1.5"></path><path d="M1088.59 691.98L1255.05 537.7" stroke="rgba(81, 83, 88, 1)" stroke-width="1.5"></path><path d="M1088.59 691.98L814.05 695.32" stroke="rgba(81, 83, 88, 1)" stroke-width="1.5"></path><path d="M1247.05 -62.91L1247.05 -62.91" stroke="rgba(81, 83, 88, 1)" stroke-width="1.5"></path><path d="M1247.05 -62.91L1459.54 -93.12" stroke="rgba(81, 83, 88, 1)" stroke-width="1.5"></path><path d="M1247.05 -62.91L1449.27 64.75" stroke="rgba(81, 83, 88, 1)" stroke-width="1.5"></path><path d="M1247.05 -62.91L1271.01 191.23" stroke="rgba(81, 83, 88, 1)" stroke-width="1.5"></path><path d="M1247.05 -62.91L1543.74 -96.17" stroke="rgba(81, 83, 88, 1)" stroke-width="1.5"></path><path d="M1247.05 -62.91L995.96 197.99" stroke="rgba(81, 83, 88, 1)" stroke-width="1.5"></path><path d="M1271.01 191.23L1271.01 191.23" stroke="rgba(81, 83, 88, 1)" stroke-width="1.5"></path><path d="M1271.01 191.23L1441.65 262.01" stroke="rgba(81, 83, 88, 1)" stroke-width="1.5"></path><path d="M1271.01 191.23L1292.26 406.85" stroke="rgba(81, 83, 88, 1)" stroke-width="1.5"></path><path d="M1271.01 191.23L1449.27 64.75" stroke="rgba(81, 83, 88, 1)" stroke-width="1.5"></path><path d="M1271.01 191.23L1136.31 365.9" stroke="rgba(81, 83, 88, 1)" stroke-width="1.5"></path><path d="M1271.01 191.23L1403.31 394.25" stroke="rgba(81, 83, 88, 1)" stroke-width="1.5"></path><path d="M1292.26 406.85L1292.26 406.85" stroke="rgba(81, 83, 88, 1)" stroke-width="1.5"></path><path d="M1292.26 406.85L1403.31 394.25" stroke="rgba(81, 83, 88, 1)" stroke-width="1.5"></path><path d="M1292.26 406.85L1255.05 537.7" stroke="rgba(81, 83, 88, 1)" stroke-width="1.5"></path><path d="M1255.05 537.7L1255.05 537.7" stroke="rgba(81, 83, 88, 1)" stroke-width="1.5"></path><path d="M1255.05 537.7L1309.87 654.07" stroke="rgba(81, 83, 88, 1)" stroke-width="1.5"></path><path d="M1309.87 654.07L1309.87 654.07" stroke="rgba(81, 83, 88, 1)" stroke-width="1.5"></path><path d="M1309.87 654.07L1409.51 691.68" stroke="rgba(81, 83, 88, 1)" stroke-width="1.5"></path><path d="M1309.87 654.07L1442.94 554.63" stroke="rgba(81, 83, 88, 1)" stroke-width="1.5"></path><path d="M1309.87 654.07L1148.84 559.93" stroke="rgba(81, 83, 88, 1)" stroke-width="1.5"></path><path d="M1459.54 -93.12L1459.54 -93.12" stroke="rgba(81, 83, 88, 1)" stroke-width="1.5"></path><path d="M1459.54 -93.12L1543.74 -96.17" stroke="rgba(81, 83, 88, 1)" stroke-width="1.5"></path><path d="M1459.54 -93.12L1449.27 64.75" stroke="rgba(81, 83, 88, 1)" stroke-width="1.5"></path><path d="M1459.54 -93.12L1607.14 90.52" stroke="rgba(81, 83, 88, 1)" stroke-width="1.5"></path><path d="M1459.54 -93.12L1697.06 -92.39" stroke="rgba(81, 83, 88, 1)" stroke-width="1.5"></path><path d="M1449.27 64.75L1449.27 64.75" stroke="rgba(81, 83, 88, 1)" stroke-width="1.5"></path><path d="M1449.27 64.75L1607.14 90.52" stroke="rgba(81, 83, 88, 1)" stroke-width="1.5"></path><path d="M1441.65 262.01L1441.65 262.01" stroke="rgba(81, 83, 88, 1)" stroke-width="1.5"></path><path d="M1441.65 262.01L1547.02 209.08" stroke="rgba(81, 83, 88, 1)" stroke-width="1.5"></path><path d="M1441.65 262.01L1403.31 394.25" stroke="rgba(81, 83, 88, 1)" stroke-width="1.5"></path><path d="M1441.65 262.01L1551.22 405.6" stroke="rgba(81, 83, 88, 1)" stroke-width="1.5"></path><path d="M1441.65 262.01L1449.27 64.75" stroke="rgba(81, 83, 88, 1)" stroke-width="1.5"></path><path d="M1441.65 262.01L1292.26 406.85" stroke="rgba(81, 83, 88, 1)" stroke-width="1.5"></path><path d="M1403.31 394.25L1403.31 394.25" stroke="rgba(81, 83, 88, 1)" stroke-width="1.5"></path><path d="M1403.31 394.25L1551.22 405.6" stroke="rgba(81, 83, 88, 1)" stroke-width="1.5"></path><path d="M1403.31 394.25L1442.94 554.63" stroke="rgba(81, 83, 88, 1)" stroke-width="1.5"></path><path d="M1442.94 554.63L1442.94 554.63" stroke="rgba(81, 83, 88, 1)" stroke-width="1.5"></path><path d="M1442.94 554.63L1409.51 691.68" stroke="rgba(81, 83, 88, 1)" stroke-width="1.5"></path><path d="M1442.94 554.63L1584.07 491.89" stroke="rgba(81, 83, 88, 1)" stroke-width="1.5"></path><path d="M1409.51 691.68L1409.51 691.68" stroke="rgba(81, 83, 88, 1)" stroke-width="1.5"></path><path d="M1409.51 691.68L1577.71 675.72" stroke="rgba(81, 83, 88, 1)" stroke-width="1.5"></path><path d="M1543.74 -96.17L1543.74 -96.17" stroke="rgba(81, 83, 88, 1)" stroke-width="1.5"></path><path d="M1543.74 -96.17L1697.06 -92.39" stroke="rgba(81, 83, 88, 1)" stroke-width="1.5"></path><path d="M1543.74 -96.17L1449.27 64.75" stroke="rgba(81, 83, 88, 1)" stroke-width="1.5"></path><path d="M1543.74 -96.17L1607.14 90.52" stroke="rgba(81, 83, 88, 1)" stroke-width="1.5"></path><path d="M1607.14 90.52L1607.14 90.52" stroke="rgba(81, 83, 88, 1)" stroke-width="1.5"></path><path d="M1607.14 90.52L1699.91 109.56" stroke="rgba(81, 83, 88, 1)" stroke-width="1.5"></path><path d="M1607.14 90.52L1547.02 209.08" stroke="rgba(81, 83, 88, 1)" stroke-width="1.5"></path><path d="M1547.02 209.08L1547.02 209.08" stroke="rgba(81, 83, 88, 1)" stroke-width="1.5"></path><path d="M1551.22 405.6L1551.22 405.6" stroke="rgba(81, 83, 88, 1)" stroke-width="1.5"></path><path d="M1551.22 405.6L1584.07 491.89" stroke="rgba(81, 83, 88, 1)" stroke-width="1.5"></path><path d="M1551.22 405.6L1702.15 392.85" stroke="rgba(81, 83, 88, 1)" stroke-width="1.5"></path><path d="M1584.07 491.89L1584.07 491.89" stroke="rgba(81, 83, 88, 1)" stroke-width="1.5"></path><path d="M1584.07 491.89L1703.56 547.25" stroke="rgba(81, 83, 88, 1)" stroke-width="1.5"></path><path d="M1584.07 491.89L1702.15 392.85" stroke="rgba(81, 83, 88, 1)" stroke-width="1.5"></path><path d="M1584.07 491.89L1577.71 675.72" stroke="rgba(81, 83, 88, 1)" stroke-width="1.5"></path><path d="M1584.07 491.89L1403.31 394.25" stroke="rgba(81, 83, 88, 1)" stroke-width="1.5"></path><path d="M1577.71 675.72L1577.71 675.72" stroke="rgba(81, 83, 88, 1)" stroke-width="1.5"></path><path d="M1577.71 675.72L1747.75 647.97" stroke="rgba(81, 83, 88, 1)" stroke-width="1.5"></path><path d="M1697.06 -92.39L1697.06 -92.39" stroke="rgba(81, 83, 88, 1)" stroke-width="1.5"></path><path d="M1697.06 -92.39L1844.69 -71.55" stroke="rgba(81, 83, 88, 1)" stroke-width="1.5"></path><path d="M1699.91 109.56L1699.91 109.56" stroke="rgba(81, 83, 88, 1)" stroke-width="1.5"></path><path d="M1699.91 109.56L1842.72 88.51" stroke="rgba(81, 83, 88, 1)" stroke-width="1.5"></path><path d="M1699.91 109.56L1756.29 251.89" stroke="rgba(81, 83, 88, 1)" stroke-width="1.5"></path><path d="M1756.29 251.89L1756.29 251.89" stroke="rgba(81, 83, 88, 1)" stroke-width="1.5"></path><path d="M1756.29 251.89L1879.77 238.37" stroke="rgba(81, 83, 88, 1)" stroke-width="1.5"></path><path d="M1756.29 251.89L1702.15 392.85" stroke="rgba(81, 83, 88, 1)" stroke-width="1.5"></path><path d="M1756.29 251.89L1898.62 364.85" stroke="rgba(81, 83, 88, 1)" stroke-width="1.5"></path><path d="M1702.15 392.85L1702.15 392.85" stroke="rgba(81, 83, 88, 1)" stroke-width="1.5"></path><path d="M1702.15 392.85L1703.56 547.25" stroke="rgba(81, 83, 88, 1)" stroke-width="1.5"></path><path d="M1703.56 547.25L1703.56 547.25" stroke="rgba(81, 83, 88, 1)" stroke-width="1.5"></path><path d="M1703.56 547.25L1747.75 647.97" stroke="rgba(81, 83, 88, 1)" stroke-width="1.5"></path><path d="M1747.75 647.97L1747.75 647.97" stroke="rgba(81, 83, 88, 1)" stroke-width="1.5"></path><path d="M1747.75 647.97L1897.69 694.07" stroke="rgba(81, 83, 88, 1)" stroke-width="1.5"></path><path d="M1747.75 647.97L1859.37 533.93" stroke="rgba(81, 83, 88, 1)" stroke-width="1.5"></path><path d="M1844.69 -71.55L1844.69 -71.55" stroke="rgba(81, 83, 88, 1)" stroke-width="1.5"></path><path d="M1844.69 -71.55L1842.72 88.51" stroke="rgba(81, 83, 88, 1)" stroke-width="1.5"></path><path d="M1844.69 -71.55L2056.77 -54.09" stroke="rgba(81, 83, 88, 1)" stroke-width="1.5"></path><path d="M1844.69 -71.55L1699.91 109.56" stroke="rgba(81, 83, 88, 1)" stroke-width="1.5"></path><path d="M1844.69 -71.55L2037.65 98.91" stroke="rgba(81, 83, 88, 1)" stroke-width="1.5"></path><path d="M1844.69 -71.55L1607.14 90.52" stroke="rgba(81, 83, 88, 1)" stroke-width="1.5"></path><path d="M1842.72 88.51L1842.72 88.51" stroke="rgba(81, 83, 88, 1)" stroke-width="1.5"></path><path d="M1879.77 238.37L1879.77 238.37" stroke="rgba(81, 83, 88, 1)" stroke-width="1.5"></path><path d="M1879.77 238.37L1898.62 364.85" stroke="rgba(81, 83, 88, 1)" stroke-width="1.5"></path><path d="M1879.77 238.37L2028.74 218.41" stroke="rgba(81, 83, 88, 1)" stroke-width="1.5"></path><path d="M1898.62 364.85L1898.62 364.85" stroke="rgba(81, 83, 88, 1)" stroke-width="1.5"></path><path d="M1898.62 364.85L1859.37 533.93" stroke="rgba(81, 83, 88, 1)" stroke-width="1.5"></path><path d="M1859.37 533.93L1859.37 533.93" stroke="rgba(81, 83, 88, 1)" stroke-width="1.5"></path><path d="M1859.37 533.93L1703.56 547.25" stroke="rgba(81, 83, 88, 1)" stroke-width="1.5"></path><path d="M1859.37 533.93L1897.69 694.07" stroke="rgba(81, 83, 88, 1)" stroke-width="1.5"></path><path d="M1897.69 694.07L1897.69 694.07" stroke="rgba(81, 83, 88, 1)" stroke-width="1.5"></path><path d="M1897.69 694.07L2009.6 698.54" stroke="rgba(81, 83, 88, 1)" stroke-width="1.5"></path><path d="M1897.69 694.07L2058.67 549.18" stroke="rgba(81, 83, 88, 1)" stroke-width="1.5"></path><path d="M2056.77 -54.09L2056.77 -54.09" stroke="rgba(81, 83, 88, 1)" stroke-width="1.5"></path><path d="M2056.77 -54.09L2037.65 98.91" stroke="rgba(81, 83, 88, 1)" stroke-width="1.5"></path><path d="M2056.77 -54.09L1842.72 88.51" stroke="rgba(81, 83, 88, 1)" stroke-width="1.5"></path><path d="M2056.77 -54.09L2028.74 218.41" stroke="rgba(81, 83, 88, 1)" stroke-width="1.5"></path><path d="M2056.77 -54.09L1879.77 238.37" stroke="rgba(81, 83, 88, 1)" stroke-width="1.5"></path><path d="M2056.77 -54.09L1697.06 -92.39" stroke="rgba(81, 83, 88, 1)" stroke-width="1.5"></path><path d="M2037.65 98.91L2037.65 98.91" stroke="rgba(81, 83, 88, 1)" stroke-width="1.5"></path><path d="M2037.65 98.91L2028.74 218.41" stroke="rgba(81, 83, 88, 1)" stroke-width="1.5"></path><path d="M2037.65 98.91L1842.72 88.51" stroke="rgba(81, 83, 88, 1)" stroke-width="1.5"></path><path d="M2037.65 98.91L1879.77 238.37" stroke="rgba(81, 83, 88, 1)" stroke-width="1.5"></path><path d="M2028.74 218.41L2028.74 218.41" stroke="rgba(81, 83, 88, 1)" stroke-width="1.5"></path><path d="M2028.74 218.41L1898.62 364.85" stroke="rgba(81, 83, 88, 1)" stroke-width="1.5"></path><path d="M2028.74 218.41L1842.72 88.51" stroke="rgba(81, 83, 88, 1)" stroke-width="1.5"></path><path d="M2058.67 549.18L2058.67 549.18" stroke="rgba(81, 83, 88, 1)" stroke-width="1.5"></path><path d="M2058.67 549.18L2009.6 698.54" stroke="rgba(81, 83, 88, 1)" stroke-width="1.5"></path><path d="M2009.6 698.54L2009.6 698.54" stroke="rgba(81, 83, 88, 1)" stroke-width="1.5"></path><path d="M2009.6 698.54L1859.37 533.93" stroke="rgba(81, 83, 88, 1)" stroke-width="1.5"></path><circle r="5" cx="-38.89" cy="392.9" fill="rgba(81, 83, 88, 1)"></circle><circle r="5" cx="-77.93" cy="495.37" fill="rgba(81, 83, 88, 1)"></circle><circle r="5" cx="-94.79" cy="656.95" fill="rgba(81, 83, 88, 1)"></circle><circle r="5" cx="76.03" cy="362.08" fill="rgba(81, 83, 88, 1)"></circle><circle r="5" cx="38.2" cy="558.53" fill="rgba(81, 83, 88, 1)"></circle><circle r="5" cx="65.22" cy="645.56" fill="rgba(81, 83, 88, 1)"></circle><circle r="5" cx="207.89" cy="512.99" fill="rgba(81, 83, 88, 1)"></circle><circle r="5" cx="240.77" cy="693.46" fill="rgba(81, 83, 88, 1)"></circle><circle r="5" cx="409.99" cy="396.61" fill="rgba(81, 83, 88, 1)"></circle><circle r="5" cx="385.56" cy="510.01" fill="rgba(81, 83, 88, 1)"></circle><circle r="5" cx="402.73" cy="702.01" fill="rgba(81, 83, 88, 1)"></circle><circle r="5" cx="511.55" cy="398.83" fill="rgba(81, 83, 88, 1)"></circle><circle r="5" cx="559.64" cy="504.55" fill="rgba(81, 83, 88, 1)"></circle><circle r="5" cx="530.95" cy="659.65" fill="rgba(81, 83, 88, 1)"></circle><circle r="5" cx="699.4" cy="410.48" fill="rgba(81, 83, 88, 1)"></circle><circle r="5" cx="694.66" cy="522.39" fill="rgba(81, 83, 88, 1)"></circle><circle r="5" cx="846.56" cy="382.87" fill="rgba(81, 83, 88, 1)"></circle><circle r="5" cx="808.53" cy="509.44" fill="rgba(81, 83, 88, 1)"></circle><circle r="5" cx="814.05" cy="695.32" fill="rgba(81, 83, 88, 1)"></circle><circle r="5" cx="995.96" cy="197.99" fill="rgba(81, 83, 88, 1)"></circle><circle r="5" cx="951.11" cy="377.22" fill="rgba(81, 83, 88, 1)"></circle><circle r="5" cx="975.93" cy="515.82" fill="rgba(81, 83, 88, 1)"></circle><circle r="5" cx="967.38" cy="704.73" fill="rgba(81, 83, 88, 1)"></circle><circle r="5" cx="1136.31" cy="365.9" fill="rgba(81, 83, 88, 1)"></circle><circle r="5" cx="1148.84" cy="559.93" fill="rgba(81, 83, 88, 1)"></circle><circle r="5" cx="1088.59" cy="691.98" fill="rgba(81, 83, 88, 1)"></circle><circle r="5" cx="1247.05" cy="-62.91" fill="rgba(81, 83, 88, 1)"></circle><circle r="5" cx="1271.01" cy="191.23" fill="rgba(81, 83, 88, 1)"></circle><circle r="5" cx="1292.26" cy="406.85" fill="rgba(81, 83, 88, 1)"></circle><circle r="5" cx="1255.05" cy="537.7" fill="rgba(81, 83, 88, 1)"></circle><circle r="5" cx="1309.87" cy="654.07" fill="rgba(81, 83, 88, 1)"></circle><circle r="5" cx="1459.54" cy="-93.12" fill="rgba(81, 83, 88, 1)"></circle><circle r="5" cx="1449.27" cy="64.75" fill="rgba(81, 83, 88, 1)"></circle><circle r="5" cx="1441.65" cy="262.01" fill="rgba(81, 83, 88, 1)"></circle><circle r="5" cx="1403.31" cy="394.25" fill="rgba(81, 83, 88, 1)"></circle><circle r="5" cx="1442.94" cy="554.63" fill="rgba(81, 83, 88, 1)"></circle><circle r="5" cx="1409.51" cy="691.68" fill="rgba(81, 83, 88, 1)"></circle><circle r="5" cx="1543.74" cy="-96.17" fill="rgba(81, 83, 88, 1)"></circle><circle r="5" cx="1607.14" cy="90.52" fill="rgba(81, 83, 88, 1)"></circle><circle r="5" cx="1547.02" cy="209.08" fill="rgba(81, 83, 88, 1)"></circle><circle r="5" cx="1551.22" cy="405.6" fill="rgba(81, 83, 88, 1)"></circle><circle r="5" cx="1584.07" cy="491.89" fill="rgba(81, 83, 88, 1)"></circle><circle r="5" cx="1577.71" cy="675.72" fill="rgba(81, 83, 88, 1)"></circle><circle r="5" cx="1697.06" cy="-92.39" fill="rgba(81, 83, 88, 1)"></circle><circle r="5" cx="1699.91" cy="109.56" fill="rgba(81, 83, 88, 1)"></circle><circle r="5" cx="1756.29" cy="251.89" fill="rgba(81, 83, 88, 1)"></circle><circle r="5" cx="1702.15" cy="392.85" fill="rgba(81, 83, 88, 1)"></circle><circle r="5" cx="1703.56" cy="547.25" fill="rgba(81, 83, 88, 1)"></circle><circle r="5" cx="1747.75" cy="647.97" fill="rgba(81, 83, 88, 1)"></circle><circle r="5" cx="1844.69" cy="-71.55" fill="rgba(81, 83, 88, 1)"></circle><circle r="5" cx="1842.72" cy="88.51" fill="rgba(81, 83, 88, 1)"></circle><circle r="5" cx="1879.77" cy="238.37" fill="rgba(81, 83, 88, 1)"></circle><circle r="5" cx="1898.62" cy="364.85" fill="rgba(81, 83, 88, 1)"></circle><circle r="5" cx="1859.37" cy="533.93" fill="rgba(81, 83, 88, 1)"></circle><circle r="5" cx="1897.69" cy="694.07" fill="rgba(81, 83, 88, 1)"></circle><circle r="5" cx="2056.77" cy="-54.09" fill="rgba(81, 83, 88, 1)"></circle><circle r="5" cx="2037.65" cy="98.91" fill="rgba(81, 83, 88, 1)"></circle><circle r="5" cx="2028.74" cy="218.41" fill="rgba(81, 83, 88, 1)"></circle><circle r="5" cx="2058.67" cy="549.18" fill="rgba(81, 83, 88, 1)"></circle><circle r="5" cx="2009.6" cy="698.54" fill="rgba(81, 83, 88, 1)"></circle><path d="M405.17 687.05L405.17 687.05" stroke="hsl(157.70000000000005, 77.2%, 51.5%)" stroke-width="1.5"></path><path d="M405.17 687.05L523.58 642.07" stroke="hsl(157.70000000000005, 77.2%, 51.5%)" stroke-width="1.5"></path><path d="M405.17 687.05L367.34 538.49" stroke="hsl(157.70000000000005, 77.2%, 51.5%)" stroke-width="1.5"></path><path d="M676.58 492.32L676.58 492.32" stroke="hsl(157.70000000000005, 77.2%, 51.5%)" stroke-width="1.5"></path><path d="M676.58 492.32L804.8 491.43" stroke="hsl(157.70000000000005, 77.2%, 51.5%)" stroke-width="1.5"></path><path d="M676.58 492.32L808.98 408.44" stroke="hsl(157.70000000000005, 77.2%, 51.5%)" stroke-width="1.5"></path><path d="M676.58 492.32L673.61 679.67" stroke="hsl(157.70000000000005, 77.2%, 51.5%)" stroke-width="1.5"></path><path d="M676.58 492.32L488.33 553.84" stroke="hsl(157.70000000000005, 77.2%, 51.5%)" stroke-width="1.5"></path><path d="M676.58 492.32L523.58 642.07" stroke="hsl(157.70000000000005, 77.2%, 51.5%)" stroke-width="1.5"></path><path d="M673.61 679.67L673.61 679.67" stroke="hsl(157.70000000000005, 77.2%, 51.5%)" stroke-width="1.5"></path><path d="M673.61 679.67L523.58 642.07" stroke="hsl(157.70000000000005, 77.2%, 51.5%)" stroke-width="1.5"></path><path d="M673.61 679.67L831.82 671.15" stroke="hsl(157.70000000000005, 77.2%, 51.5%)" stroke-width="1.5"></path><path d="M673.61 679.67L488.33 553.84" stroke="hsl(157.70000000000005, 77.2%, 51.5%)" stroke-width="1.5"></path><path d="M673.61 679.67L804.8 491.43" stroke="hsl(157.70000000000005, 77.2%, 51.5%)" stroke-width="1.5"></path><path d="M831.82 671.15L831.82 671.15" stroke="hsl(157.70000000000005, 77.2%, 51.5%)" stroke-width="1.5"></path><path d="M831.82 671.15L999.11 701.43" stroke="hsl(157.70000000000005, 77.2%, 51.5%)" stroke-width="1.5"></path><path d="M831.82 671.15L804.8 491.43" stroke="hsl(157.70000000000005, 77.2%, 51.5%)" stroke-width="1.5"></path><path d="M831.82 671.15L961.68 511.81" stroke="hsl(157.70000000000005, 77.2%, 51.5%)" stroke-width="1.5"></path><path d="M831.82 671.15L676.58 492.32" stroke="hsl(157.70000000000005, 77.2%, 51.5%)" stroke-width="1.5"></path><path d="M961.68 511.81L961.68 511.81" stroke="hsl(157.70000000000005, 77.2%, 51.5%)" stroke-width="1.5"></path><path d="M961.68 511.81L973.32 382.3" stroke="hsl(157.70000000000005, 77.2%, 51.5%)" stroke-width="1.5"></path><path d="M961.68 511.81L804.8 491.43" stroke="hsl(157.70000000000005, 77.2%, 51.5%)" stroke-width="1.5"></path><path d="M961.68 511.81L1121.18 533.89" stroke="hsl(157.70000000000005, 77.2%, 51.5%)" stroke-width="1.5"></path><path d="M961.68 511.81L808.98 408.44" stroke="hsl(157.70000000000005, 77.2%, 51.5%)" stroke-width="1.5"></path><path d="M999.11 701.43L999.11 701.43" stroke="hsl(157.70000000000005, 77.2%, 51.5%)" stroke-width="1.5"></path><path d="M999.11 701.43L1137.86 655.37" stroke="hsl(157.70000000000005, 77.2%, 51.5%)" stroke-width="1.5"></path><path d="M999.11 701.43L961.68 511.81" stroke="hsl(157.70000000000005, 77.2%, 51.5%)" stroke-width="1.5"></path><path d="M1581.99 -72.41L1581.99 -72.41" stroke="hsl(157.70000000000005, 77.2%, 51.5%)" stroke-width="1.5"></path><path d="M1581.99 -72.41L1578.87 43.82" stroke="hsl(157.70000000000005, 77.2%, 51.5%)" stroke-width="1.5"></path><path d="M1581.99 -72.41L1740.09 -43.89" stroke="hsl(157.70000000000005, 77.2%, 51.5%)" stroke-width="1.5"></path><path d="M1581.99 -72.41L1761.47 101.06" stroke="hsl(157.70000000000005, 77.2%, 51.5%)" stroke-width="1.5"></path><path d="M1581.99 -72.41L1880.41 -42.41" stroke="hsl(157.70000000000005, 77.2%, 51.5%)" stroke-width="1.5"></path><path d="M1581.99 -72.41L1880.68 43.61" stroke="hsl(157.70000000000005, 77.2%, 51.5%)" stroke-width="1.5"></path><path d="M1581.99 -72.41L1759.69 236.34" stroke="hsl(157.70000000000005, 77.2%, 51.5%)" stroke-width="1.5"></path><path d="M1759.69 236.34L1759.69 236.34" stroke="hsl(157.70000000000005, 77.2%, 51.5%)" stroke-width="1.5"></path><path d="M1759.69 236.34L1839.89 212.89" stroke="hsl(157.70000000000005, 77.2%, 51.5%)" stroke-width="1.5"></path><path d="M1759.69 236.34L1761.47 101.06" stroke="hsl(157.70000000000005, 77.2%, 51.5%)" stroke-width="1.5"></path><path d="M1694.03 710.98L1694.03 710.98" stroke="hsl(157.70000000000005, 77.2%, 51.5%)" stroke-width="1.5"></path><path d="M1694.03 710.98L1571.99 696.19" stroke="hsl(157.70000000000005, 77.2%, 51.5%)" stroke-width="1.5"></path><path d="M1694.03 710.98L1703.05 506.88" stroke="hsl(157.70000000000005, 77.2%, 51.5%)" stroke-width="1.5"></path><path d="M1694.03 710.98L1898.84 644.13" stroke="hsl(157.70000000000005, 77.2%, 51.5%)" stroke-width="1.5"></path><path d="M1694.03 710.98L1571.39 526.54" stroke="hsl(157.70000000000005, 77.2%, 51.5%)" stroke-width="1.5"></path><path d="M1694.03 710.98L1846.24 528.92" stroke="hsl(157.70000000000005, 77.2%, 51.5%)" stroke-width="1.5"></path><path d="M1846.24 528.92L1846.24 528.92" stroke="hsl(157.70000000000005, 77.2%, 51.5%)" stroke-width="1.5"></path><path d="M1846.24 528.92L1898.84 644.13" stroke="hsl(157.70000000000005, 77.2%, 51.5%)" stroke-width="1.5"></path><path d="M1846.24 528.92L1703.05 506.88" stroke="hsl(157.70000000000005, 77.2%, 51.5%)" stroke-width="1.5"></path><path d="M-89.32 499.98L-89.32 499.98" stroke="hsl(157.70000000000005, 77.2%, 51.5%)" stroke-width="1.5"></path><path d="M-89.32 499.98L40.21 647.01" stroke="hsl(157.70000000000005, 77.2%, 51.5%)" stroke-width="1.5"></path><path d="M-89.32 499.98L-52.53 709.42" stroke="hsl(157.70000000000005, 77.2%, 51.5%)" stroke-width="1.5"></path><path d="M-89.32 499.98L257.06 543.55" stroke="hsl(157.70000000000005, 77.2%, 51.5%)" stroke-width="1.5"></path><path d="M-89.32 499.98L232.05 667.7" stroke="hsl(157.70000000000005, 77.2%, 51.5%)" stroke-width="1.5"></path><path d="M-89.32 499.98L367.34 538.49" stroke="hsl(157.70000000000005, 77.2%, 51.5%)" stroke-width="1.5"></path><path d="M-52.53 709.42L-52.53 709.42" stroke="hsl(157.70000000000005, 77.2%, 51.5%)" stroke-width="1.5"></path><path d="M-52.53 709.42L40.21 647.01" stroke="hsl(157.70000000000005, 77.2%, 51.5%)" stroke-width="1.5"></path><path d="M-52.53 709.42L232.05 667.7" stroke="hsl(157.70000000000005, 77.2%, 51.5%)" stroke-width="1.5"></path><path d="M-52.53 709.42L257.06 543.55" stroke="hsl(157.70000000000005, 77.2%, 51.5%)" stroke-width="1.5"></path><path d="M40.21 647.01L40.21 647.01" stroke="hsl(157.70000000000005, 77.2%, 51.5%)" stroke-width="1.5"></path><path d="M40.21 647.01L232.05 667.7" stroke="hsl(157.70000000000005, 77.2%, 51.5%)" stroke-width="1.5"></path><path d="M40.21 647.01L257.06 543.55" stroke="hsl(157.70000000000005, 77.2%, 51.5%)" stroke-width="1.5"></path><path d="M257.06 543.55L257.06 543.55" stroke="hsl(157.70000000000005, 77.2%, 51.5%)" stroke-width="1.5"></path><path d="M257.06 543.55L367.34 538.49" stroke="hsl(157.70000000000005, 77.2%, 51.5%)" stroke-width="1.5"></path><path d="M257.06 543.55L232.05 667.7" stroke="hsl(157.70000000000005, 77.2%, 51.5%)" stroke-width="1.5"></path><path d="M257.06 543.55L405.17 687.05" stroke="hsl(157.70000000000005, 77.2%, 51.5%)" stroke-width="1.5"></path><path d="M232.05 667.7L232.05 667.7" stroke="hsl(157.70000000000005, 77.2%, 51.5%)" stroke-width="1.5"></path><path d="M367.34 538.49L367.34 538.49" stroke="hsl(157.70000000000005, 77.2%, 51.5%)" stroke-width="1.5"></path><path d="M367.34 538.49L488.33 553.84" stroke="hsl(157.70000000000005, 77.2%, 51.5%)" stroke-width="1.5"></path><path d="M367.34 538.49L232.05 667.7" stroke="hsl(157.70000000000005, 77.2%, 51.5%)" stroke-width="1.5"></path><path d="M367.34 538.49L523.58 642.07" stroke="hsl(157.70000000000005, 77.2%, 51.5%)" stroke-width="1.5"></path><path d="M367.34 538.49L676.58 492.32" stroke="hsl(157.70000000000005, 77.2%, 51.5%)" stroke-width="1.5"></path><path d="M488.33 553.84L488.33 553.84" stroke="hsl(157.70000000000005, 77.2%, 51.5%)" stroke-width="1.5"></path><path d="M488.33 553.84L523.58 642.07" stroke="hsl(157.70000000000005, 77.2%, 51.5%)" stroke-width="1.5"></path><path d="M488.33 553.84L405.17 687.05" stroke="hsl(157.70000000000005, 77.2%, 51.5%)" stroke-width="1.5"></path><path d="M523.58 642.07L523.58 642.07" stroke="hsl(157.70000000000005, 77.2%, 51.5%)" stroke-width="1.5"></path><path d="M808.98 408.44L808.98 408.44" stroke="hsl(157.70000000000005, 77.2%, 51.5%)" stroke-width="1.5"></path><path d="M808.98 408.44L804.8 491.43" stroke="hsl(157.70000000000005, 77.2%, 51.5%)" stroke-width="1.5"></path><path d="M808.98 408.44L973.32 382.3" stroke="hsl(157.70000000000005, 77.2%, 51.5%)" stroke-width="1.5"></path><path d="M808.98 408.44L831.82 671.15" stroke="hsl(157.70000000000005, 77.2%, 51.5%)" stroke-width="1.5"></path><path d="M808.98 408.44L673.61 679.67" stroke="hsl(157.70000000000005, 77.2%, 51.5%)" stroke-width="1.5"></path><path d="M804.8 491.43L804.8 491.43" stroke="hsl(157.70000000000005, 77.2%, 51.5%)" stroke-width="1.5"></path><path d="M973.32 382.3L973.32 382.3" stroke="hsl(157.70000000000005, 77.2%, 51.5%)" stroke-width="1.5"></path><path d="M973.32 382.3L1118.31 405.99" stroke="hsl(157.70000000000005, 77.2%, 51.5%)" stroke-width="1.5"></path><path d="M973.32 382.3L804.8 491.43" stroke="hsl(157.70000000000005, 77.2%, 51.5%)" stroke-width="1.5"></path><path d="M973.32 382.3L1121.18 533.89" stroke="hsl(157.70000000000005, 77.2%, 51.5%)" stroke-width="1.5"></path><path d="M973.32 382.3L1243.69 513.36" stroke="hsl(157.70000000000005, 77.2%, 51.5%)" stroke-width="1.5"></path><path d="M1118.31 405.99L1118.31 405.99" stroke="hsl(157.70000000000005, 77.2%, 51.5%)" stroke-width="1.5"></path><path d="M1118.31 405.99L1121.18 533.89" stroke="hsl(157.70000000000005, 77.2%, 51.5%)" stroke-width="1.5"></path><path d="M1118.31 405.99L1243.69 513.36" stroke="hsl(157.70000000000005, 77.2%, 51.5%)" stroke-width="1.5"></path><path d="M1118.31 405.99L961.68 511.81" stroke="hsl(157.70000000000005, 77.2%, 51.5%)" stroke-width="1.5"></path><path d="M1121.18 533.89L1121.18 533.89" stroke="hsl(157.70000000000005, 77.2%, 51.5%)" stroke-width="1.5"></path><path d="M1121.18 533.89L1137.86 655.37" stroke="hsl(157.70000000000005, 77.2%, 51.5%)" stroke-width="1.5"></path><path d="M1121.18 533.89L1243.69 513.36" stroke="hsl(157.70000000000005, 77.2%, 51.5%)" stroke-width="1.5"></path><path d="M1137.86 655.37L1137.86 655.37" stroke="hsl(157.70000000000005, 77.2%, 51.5%)" stroke-width="1.5"></path><path d="M1137.86 655.37L1292.04 691.17" stroke="hsl(157.70000000000005, 77.2%, 51.5%)" stroke-width="1.5"></path><path d="M1137.86 655.37L1243.69 513.36" stroke="hsl(157.70000000000005, 77.2%, 51.5%)" stroke-width="1.5"></path><path d="M1137.86 655.37L961.68 511.81" stroke="hsl(157.70000000000005, 77.2%, 51.5%)" stroke-width="1.5"></path><path d="M1308.45 401.02L1308.45 401.02" stroke="hsl(157.70000000000005, 77.2%, 51.5%)" stroke-width="1.5"></path><path d="M1308.45 401.02L1243.69 513.36" stroke="hsl(157.70000000000005, 77.2%, 51.5%)" stroke-width="1.5"></path><path d="M1308.45 401.02L1456.93 502.19" stroke="hsl(157.70000000000005, 77.2%, 51.5%)" stroke-width="1.5"></path><path d="M1308.45 401.02L1118.31 405.99" stroke="hsl(157.70000000000005, 77.2%, 51.5%)" stroke-width="1.5"></path><path d="M1308.45 401.02L1121.18 533.89" stroke="hsl(157.70000000000005, 77.2%, 51.5%)" stroke-width="1.5"></path><path d="M1243.69 513.36L1243.69 513.36" stroke="hsl(157.70000000000005, 77.2%, 51.5%)" stroke-width="1.5"></path><path d="M1292.04 691.17L1292.04 691.17" stroke="hsl(157.70000000000005, 77.2%, 51.5%)" stroke-width="1.5"></path><path d="M1292.04 691.17L1413.62 689.66" stroke="hsl(157.70000000000005, 77.2%, 51.5%)" stroke-width="1.5"></path><path d="M1292.04 691.17L1243.69 513.36" stroke="hsl(157.70000000000005, 77.2%, 51.5%)" stroke-width="1.5"></path><path d="M1292.04 691.17L1121.18 533.89" stroke="hsl(157.70000000000005, 77.2%, 51.5%)" stroke-width="1.5"></path><path d="M1456.93 502.19L1456.93 502.19" stroke="hsl(157.70000000000005, 77.2%, 51.5%)" stroke-width="1.5"></path><path d="M1456.93 502.19L1571.39 526.54" stroke="hsl(157.70000000000005, 77.2%, 51.5%)" stroke-width="1.5"></path><path d="M1456.93 502.19L1594.89 397.71" stroke="hsl(157.70000000000005, 77.2%, 51.5%)" stroke-width="1.5"></path><path d="M1413.62 689.66L1413.62 689.66" stroke="hsl(157.70000000000005, 77.2%, 51.5%)" stroke-width="1.5"></path><path d="M1413.62 689.66L1571.99 696.19" stroke="hsl(157.70000000000005, 77.2%, 51.5%)" stroke-width="1.5"></path><path d="M1413.62 689.66L1456.93 502.19" stroke="hsl(157.70000000000005, 77.2%, 51.5%)" stroke-width="1.5"></path><path d="M1578.87 43.82L1578.87 43.82" stroke="hsl(157.70000000000005, 77.2%, 51.5%)" stroke-width="1.5"></path><path d="M1578.87 43.82L1740.09 -43.89" stroke="hsl(157.70000000000005, 77.2%, 51.5%)" stroke-width="1.5"></path><path d="M1578.87 43.82L1761.47 101.06" stroke="hsl(157.70000000000005, 77.2%, 51.5%)" stroke-width="1.5"></path><path d="M1578.87 43.82L1759.69 236.34" stroke="hsl(157.70000000000005, 77.2%, 51.5%)" stroke-width="1.5"></path><path d="M1578.87 43.82L1880.68 43.61" stroke="hsl(157.70000000000005, 77.2%, 51.5%)" stroke-width="1.5"></path><path d="M1594.89 397.71L1594.89 397.71" stroke="hsl(157.70000000000005, 77.2%, 51.5%)" stroke-width="1.5"></path><path d="M1594.89 397.71L1706.25 374.76" stroke="hsl(157.70000000000005, 77.2%, 51.5%)" stroke-width="1.5"></path><path d="M1594.89 397.71L1571.39 526.54" stroke="hsl(157.70000000000005, 77.2%, 51.5%)" stroke-width="1.5"></path><path d="M1571.39 526.54L1571.39 526.54" stroke="hsl(157.70000000000005, 77.2%, 51.5%)" stroke-width="1.5"></path><path d="M1571.39 526.54L1703.05 506.88" stroke="hsl(157.70000000000005, 77.2%, 51.5%)" stroke-width="1.5"></path><path d="M1571.99 696.19L1571.99 696.19" stroke="hsl(157.70000000000005, 77.2%, 51.5%)" stroke-width="1.5"></path><path d="M1571.99 696.19L1571.39 526.54" stroke="hsl(157.70000000000005, 77.2%, 51.5%)" stroke-width="1.5"></path><path d="M1571.99 696.19L1456.93 502.19" stroke="hsl(157.70000000000005, 77.2%, 51.5%)" stroke-width="1.5"></path><path d="M1571.99 696.19L1703.05 506.88" stroke="hsl(157.70000000000005, 77.2%, 51.5%)" stroke-width="1.5"></path><path d="M1571.99 696.19L1292.04 691.17" stroke="hsl(157.70000000000005, 77.2%, 51.5%)" stroke-width="1.5"></path><path d="M1740.09 -43.89L1740.09 -43.89" stroke="hsl(157.70000000000005, 77.2%, 51.5%)" stroke-width="1.5"></path><path d="M1740.09 -43.89L1880.41 -42.41" stroke="hsl(157.70000000000005, 77.2%, 51.5%)" stroke-width="1.5"></path><path d="M1740.09 -43.89L1761.47 101.06" stroke="hsl(157.70000000000005, 77.2%, 51.5%)" stroke-width="1.5"></path><path d="M1761.47 101.06L1761.47 101.06" stroke="hsl(157.70000000000005, 77.2%, 51.5%)" stroke-width="1.5"></path><path d="M1761.47 101.06L1880.68 43.61" stroke="hsl(157.70000000000005, 77.2%, 51.5%)" stroke-width="1.5"></path><path d="M1706.25 374.76L1706.25 374.76" stroke="hsl(157.70000000000005, 77.2%, 51.5%)" stroke-width="1.5"></path><path d="M1703.05 506.88L1703.05 506.88" stroke="hsl(157.70000000000005, 77.2%, 51.5%)" stroke-width="1.5"></path><path d="M1703.05 506.88L1706.25 374.76" stroke="hsl(157.70000000000005, 77.2%, 51.5%)" stroke-width="1.5"></path><path d="M1703.05 506.88L1594.89 397.71" stroke="hsl(157.70000000000005, 77.2%, 51.5%)" stroke-width="1.5"></path><path d="M1880.41 -42.41L1880.41 -42.41" stroke="hsl(157.70000000000005, 77.2%, 51.5%)" stroke-width="1.5"></path><path d="M1880.41 -42.41L1880.68 43.61" stroke="hsl(157.70000000000005, 77.2%, 51.5%)" stroke-width="1.5"></path><path d="M1880.41 -42.41L2014.28 -112.25" stroke="hsl(157.70000000000005, 77.2%, 51.5%)" stroke-width="1.5"></path><path d="M1880.41 -42.41L2003.44 66.32" stroke="hsl(157.70000000000005, 77.2%, 51.5%)" stroke-width="1.5"></path><path d="M1880.41 -42.41L1761.47 101.06" stroke="hsl(157.70000000000005, 77.2%, 51.5%)" stroke-width="1.5"></path><path d="M1880.41 -42.41L1839.89 212.89" stroke="hsl(157.70000000000005, 77.2%, 51.5%)" stroke-width="1.5"></path><path d="M1880.68 43.61L1880.68 43.61" stroke="hsl(157.70000000000005, 77.2%, 51.5%)" stroke-width="1.5"></path><path d="M1880.68 43.61L2003.44 66.32" stroke="hsl(157.70000000000005, 77.2%, 51.5%)" stroke-width="1.5"></path><path d="M1880.68 43.61L1740.09 -43.89" stroke="hsl(157.70000000000005, 77.2%, 51.5%)" stroke-width="1.5"></path><path d="M1880.68 43.61L1839.89 212.89" stroke="hsl(157.70000000000005, 77.2%, 51.5%)" stroke-width="1.5"></path><path d="M1880.68 43.61L2014.28 -112.25" stroke="hsl(157.70000000000005, 77.2%, 51.5%)" stroke-width="1.5"></path><path d="M1839.89 212.89L1839.89 212.89" stroke="hsl(157.70000000000005, 77.2%, 51.5%)" stroke-width="1.5"></path><path d="M1839.89 212.89L1761.47 101.06" stroke="hsl(157.70000000000005, 77.2%, 51.5%)" stroke-width="1.5"></path><path d="M1900.87 365.89L1900.87 365.89" stroke="hsl(157.70000000000005, 77.2%, 51.5%)" stroke-width="1.5"></path><path d="M1900.87 365.89L1996.23 256.09" stroke="hsl(157.70000000000005, 77.2%, 51.5%)" stroke-width="1.5"></path><path d="M1900.87 365.89L2050.95 351.19" stroke="hsl(157.70000000000005, 77.2%, 51.5%)" stroke-width="1.5"></path><path d="M1900.87 365.89L1839.89 212.89" stroke="hsl(157.70000000000005, 77.2%, 51.5%)" stroke-width="1.5"></path><path d="M1900.87 365.89L1846.24 528.92" stroke="hsl(157.70000000000005, 77.2%, 51.5%)" stroke-width="1.5"></path><path d="M1898.84 644.13L1898.84 644.13" stroke="hsl(157.70000000000005, 77.2%, 51.5%)" stroke-width="1.5"></path><path d="M1898.84 644.13L2033.45 658.1" stroke="hsl(157.70000000000005, 77.2%, 51.5%)" stroke-width="1.5"></path><path d="M1898.84 644.13L2014.95 529.94" stroke="hsl(157.70000000000005, 77.2%, 51.5%)" stroke-width="1.5"></path><path d="M2014.28 -112.25L2014.28 -112.25" stroke="hsl(157.70000000000005, 77.2%, 51.5%)" stroke-width="1.5"></path><path d="M2014.28 -112.25L2003.44 66.32" stroke="hsl(157.70000000000005, 77.2%, 51.5%)" stroke-width="1.5"></path><path d="M2003.44 66.32L2003.44 66.32" stroke="hsl(157.70000000000005, 77.2%, 51.5%)" stroke-width="1.5"></path><path d="M1996.23 256.09L1996.23 256.09" stroke="hsl(157.70000000000005, 77.2%, 51.5%)" stroke-width="1.5"></path><path d="M1996.23 256.09L2050.95 351.19" stroke="hsl(157.70000000000005, 77.2%, 51.5%)" stroke-width="1.5"></path><path d="M2050.95 351.19L2050.95 351.19" stroke="hsl(157.70000000000005, 77.2%, 51.5%)" stroke-width="1.5"></path><path d="M2050.95 351.19L2014.95 529.94" stroke="hsl(157.70000000000005, 77.2%, 51.5%)" stroke-width="1.5"></path><path d="M2014.95 529.94L2014.95 529.94" stroke="hsl(157.70000000000005, 77.2%, 51.5%)" stroke-width="1.5"></path><path d="M2014.95 529.94L2033.45 658.1" stroke="hsl(157.70000000000005, 77.2%, 51.5%)" stroke-width="1.5"></path><path d="M2014.95 529.94L1846.24 528.92" stroke="hsl(157.70000000000005, 77.2%, 51.5%)" stroke-width="1.5"></path><path d="M2033.45 658.1L2033.45 658.1" stroke="hsl(157.70000000000005, 77.2%, 51.5%)" stroke-width="1.5"></path><path d="M2033.45 658.1L1846.24 528.92" stroke="hsl(157.70000000000005, 77.2%, 51.5%)" stroke-width="1.5"></path><path d="M2033.45 658.1L2050.95 351.19" stroke="hsl(157.70000000000005, 77.2%, 51.5%)" stroke-width="1.5"></path><path d="M2033.45 658.1L1900.87 365.89" stroke="hsl(157.70000000000005, 77.2%, 51.5%)" stroke-width="1.5"></path><circle r="25" cx="405.17" cy="687.05" fill="url(#SvgjsRadialGradient1047)"></circle><circle r="25" cx="676.58" cy="492.32" fill="url(#SvgjsRadialGradient1047)"></circle><circle r="25" cx="673.61" cy="679.67" fill="url(#SvgjsRadialGradient1047)"></circle><circle r="25" cx="831.82" cy="671.15" fill="url(#SvgjsRadialGradient1047)"></circle><circle r="25" cx="961.68" cy="511.81" fill="url(#SvgjsRadialGradient1047)"></circle><circle r="25" cx="999.11" cy="701.43" fill="url(#SvgjsRadialGradient1047)"></circle><circle r="25" cx="1581.99" cy="-72.41" fill="url(#SvgjsRadialGradient1047)"></circle><circle r="25" cx="1759.69" cy="236.34" fill="url(#SvgjsRadialGradient1047)"></circle><circle r="25" cx="1694.03" cy="710.98" fill="url(#SvgjsRadialGradient1047)"></circle><circle r="25" cx="1846.24" cy="528.92" fill="url(#SvgjsRadialGradient1047)"></circle><circle r="5" cx="-89.32" cy="499.98" fill="#8bd9bc"></circle><circle r="5" cx="-52.53" cy="709.42" fill="#8bd9bc"></circle><circle r="5" cx="40.21" cy="647.01" fill="#8bd9bc"></circle><circle r="5" cx="257.06" cy="543.55" fill="#8bd9bc"></circle><circle r="5" cx="232.05" cy="667.7" fill="#8bd9bc"></circle><circle r="5" cx="367.34" cy="538.49" fill="#8bd9bc"></circle><circle r="5" cx="488.33" cy="553.84" fill="#8bd9bc"></circle><circle r="5" cx="523.58" cy="642.07" fill="#8bd9bc"></circle><circle r="5" cx="808.98" cy="408.44" fill="#8bd9bc"></circle><circle r="5" cx="804.8" cy="491.43" fill="#8bd9bc"></circle><circle r="5" cx="973.32" cy="382.3" fill="#8bd9bc"></circle><circle r="5" cx="1118.31" cy="405.99" fill="#8bd9bc"></circle><circle r="5" cx="1121.18" cy="533.89" fill="#8bd9bc"></circle><circle r="5" cx="1137.86" cy="655.37" fill="#8bd9bc"></circle><circle r="5" cx="1308.45" cy="401.02" fill="#8bd9bc"></circle><circle r="5" cx="1243.69" cy="513.36" fill="#8bd9bc"></circle><circle r="5" cx="1292.04" cy="691.17" fill="#8bd9bc"></circle><circle r="5" cx="1456.93" cy="502.19" fill="#8bd9bc"></circle><circle r="5" cx="1413.62" cy="689.66" fill="#8bd9bc"></circle><circle r="5" cx="1578.87" cy="43.82" fill="#8bd9bc"></circle><circle r="5" cx="1594.89" cy="397.71" fill="#8bd9bc"></circle><circle r="5" cx="1571.39" cy="526.54" fill="#8bd9bc"></circle><circle r="5" cx="1571.99" cy="696.19" fill="#8bd9bc"></circle><circle r="5" cx="1740.09" cy="-43.89" fill="#8bd9bc"></circle><circle r="5" cx="1761.47" cy="101.06" fill="#8bd9bc"></circle><circle r="5" cx="1706.25" cy="374.76" fill="#8bd9bc"></circle><circle r="5" cx="1703.05" cy="506.88" fill="#8bd9bc"></circle><circle r="5" cx="1880.41" cy="-42.41" fill="#8bd9bc"></circle><circle r="5" cx="1880.68" cy="43.61" fill="#8bd9bc"></circle><circle r="5" cx="1839.89" cy="212.89" fill="#8bd9bc"></circle><circle r="5" cx="1900.87" cy="365.89" fill="#8bd9bc"></circle><circle r="5" cx="1898.84" cy="644.13" fill="#8bd9bc"></circle><circle r="5" cx="2014.28" cy="-112.25" fill="#8bd9bc"></circle><circle r="5" cx="2003.44" cy="66.32" fill="#8bd9bc"></circle><circle r="5" cx="1996.23" cy="256.09" fill="#8bd9bc"></circle><circle r="5" cx="2050.95" cy="351.19" fill="#8bd9bc"></circle><circle r="5" cx="2014.95" cy="529.94" fill="#8bd9bc"></circle><circle r="5" cx="2033.45" cy="658.1" fill="#8bd9bc"></circle></g><defs><mask id="SvgjsMask1046"><rect width="1920" height="540" fill="#ffffff"></rect></mask><radialGradient id="SvgjsRadialGradient1047"><stop stop-color="#ffffff" offset="0.1"></stop><stop stop-color="rgba(23, 179, 121, 1)" offset="0.2"></stop><stop stop-color="rgba(23, 179, 121, 0)" offset="1"></stop></radialGradient></defs></svg>