<svg viewBox="0 0 131.11221 24.874489" xmlns="http://www.w3.org/2000/svg">
   <g transform="translate(-9.8021061,-24.872459)">
      <g transform="matrix(0.26458333,0,0,0.26458333,-0.68724696,-148.74482)">
         <path d="m 416.9988,750.2051 c 19.7215,-30.2385 44.9495,-11.4794 66.501,-10.963 1.931,0.0468 4.1539,-1.6256 4.8717,-3.4477 -0.1236,0.4331 1.5009,-0.5862 1.3773,-0.1528 -1.1228,2.5118 -2.8536,4.4149 -5.1783,4.8478 -18.4249,3.4271 -41.9769,-17.2834 -59.9083,9.7157 z" style="fill: #19a485; fill-rule: evenodd" />
         <path d="m 434.3247,746.5799 c 13.5434,-13.43 33.0341,-3.0022 47.5248,-4.1394 4.4702,-0.3504 5.9536,-3.5207 7.0866,-6.3349 -0.0983,0.3447 1.1296,-0.9737 1.0313,-0.6287 -0.7467,2.874 -1.9392,5.123 -3.6888,6.4287 -9.5913,7.1569 -33.063,-5.5443 -45,4.6743 z" style="fill: #f03f09; fill-rule: evenodd" />
         <path d="m 41.851,695.2986 v 25.5645 h -2.2062 v -59.5618 h 18.6114 c 6.1572,0 10.9043,1.5497 14.2274,4.6494 3.3369,3.0994 4.9983,7.2042 4.9983,12.3284 0,5.1798 -1.6614,9.3127 -4.9705,12.3982 -3.3089,3.0855 -8.07,4.6213 -14.2552,4.6213 z m 0,-2.2059 h 16.4052 c 5.6407,0 9.885,-1.4102 12.7474,-4.2165 2.8483,-2.8063 4.2724,-6.3108 4.2724,-10.5135 0,-4.314 -1.4241,-7.8604 -4.2585,-10.6528 -2.8344,-2.7925 -7.0928,-4.1888 -12.7613,-4.1888 H 41.851 Z m 66.4727,-14.8975 -2.8621,-0.2372 c -3.9512,0 -7.1626,1.2704 -9.6339,3.8256 -2.457,2.541 -4.0628,5.906 -4.8027,10.0806 v 28.9989 h -2.2062 v -44.2595 h 1.8011 l 0.4051,7.6932 v 1.5077 c 1.2285,-3.1552 3.0577,-5.6267 5.487,-7.3859 2.4293,-1.7592 5.4031,-2.6388 8.9496,-2.6388 0.6284,0 1.2146,0.0559 1.7453,0.1536 0.5306,0.0978 0.9912,0.1956 1.3682,0.3073 z m 36.2872,34.4863 c -1.5217,2.6666 -3.7976,4.8447 -6.8273,6.5203 -3.0299,1.6752 -6.7019,2.5271 -11.0021,2.5271 -4.1187,0 -7.3579,-1.1311 -9.7035,-3.3789 -2.3318,-2.2479 -3.5045,-5.2915 -3.5045,-9.1032 0,-3.714 1.7453,-6.8134 5.2497,-9.3266 3.5045,-2.5132 7.8886,-3.7698 13.1522,-3.7698 h 12.6355 v -6.4505 c 0,-3.6859 -1.1727,-6.5622 -3.5323,-8.6145 -2.3595,-2.0664 -5.6826,-3.0855 -9.9689,-3.0855 -4.007,0 -7.2323,0.9632 -9.6616,2.9041 -2.4434,1.9267 -3.672,4.4257 -3.672,7.4835 l -1.8431,-0.0837 -0.0697,-0.2094 c -0.1675,-3.4348 1.1727,-6.3389 4.0071,-8.7262 2.834,-2.3876 6.5761,-3.5884 11.2393,-3.5884 4.7472,0 8.5587,1.2008 11.4208,3.6023 2.8624,2.4015 4.2866,5.864 4.2866,10.3875 v 22.1718 c 0,1.5639 0.0975,3.0716 0.265,4.5516 0.1817,1.4661 0.4748,2.918 0.8796,4.3701 h -2.4432 c -0.3631,-1.9405 -0.6004,-3.3927 -0.7259,-4.3562 -0.1117,-0.9632 -0.1817,-2.0104 -0.1817,-3.1275 z m -17.8294,6.8692 c 4.3841,0 8.098,-0.9635 11.1416,-2.9041 3.0438,-1.9267 5.2778,-4.7052 6.6878,-8.2933 v -9.9411 H 132.101 c -4.5796,0 -8.447,1.0471 -11.6025,3.1694 -3.1413,2.1084 -4.7191,4.7191 -4.7191,7.8327 0,2.9738 1.0052,5.4034 3.0019,7.302 2.0106,1.8851 4.6772,2.8344 8.0002,2.8344 z m 32.2243,-20.8593 c 0,-7.0089 1.4799,-12.5796 4.426,-16.7125 2.946,-4.1326 7.0367,-6.1991 12.2726,-6.1991 3.4344,0 6.4085,0.7818 8.9356,2.3318 2.5271,1.5636 4.5377,3.6859 6.0316,6.3805 l 0.3212,-7.8885 h 1.8847 v 13.627 c 0,0.0558 0,0.0836 0,0.1116 0,0.0278 0.0139,0.042 0.042,0.042 v 18.0388 c -0.0281,0.0559 -0.042,0.0978 -0.042,0.1256 0,0.0281 0,0.0558 0,0.0839 v 12.4821 c 0,5.6126 -1.48,9.9547 -4.4399,13.0263 -2.9599,3.0577 -7.0509,4.5936 -12.2865,4.5936 -2.1501,0 -4.3979,-0.2234 -6.7297,-0.6702 -2.3315,-0.4467 -4.3702,-1.0751 -6.1155,-1.8569 l 0.6562,-2.2198 c 1.9829,0.8795 3.9096,1.5216 5.7666,1.9544 1.8569,0.419 3.9651,0.6285 6.3385,0.6285 4.7753,0 8.3914,-1.3266 10.8627,-3.9932 2.4712,-2.6529 3.6997,-6.4783 3.6997,-11.4627 v -6.9951 c -1.4938,2.3457 -3.5183,4.1885 -6.0735,5.5568 -2.5548,1.3683 -5.529,2.0526 -8.9356,2.0526 -5.2078,0 -9.2846,-1.9968 -12.2168,-5.9758 -2.9319,-3.9792 -4.3979,-9.3826 -4.3979,-16.196 z m 2.2617,0.8657 c 0,6.1013 1.2008,10.9602 3.6304,14.5624 2.4292,3.5881 5.9896,5.3893 10.6806,5.3893 3.784,0 6.9531,-0.8516 9.4944,-2.5549 2.5271,-1.7033 4.384,-3.9793 5.5567,-6.8553 v -21.1805 c -1.089,-3.0855 -2.8202,-5.6687 -5.1797,-7.7768 -2.3457,-2.0943 -5.6129,-3.1414 -9.7875,-3.1414 -4.6913,0 -8.2655,1.9128 -10.7229,5.7382 -2.4573,3.8395 -3.672,8.8239 -3.672,14.9533 z m 47.1918,-22.9535 0.2931,8.9217 c 1.3544,-3.0855 3.2811,-5.4731 5.7662,-7.1764 2.4854,-1.7034 5.5012,-2.5691 9.0754,-2.5691 3.7698,0 6.8275,0.9493 9.201,2.8483 2.3734,1.8989 4.0209,4.8308 4.9564,8.81 1.2288,-3.672 3.1555,-6.5483 5.7804,-8.6006 2.6388,-2.0664 5.9199,-3.0855 9.8433,-3.0855 4.8866,0 8.5864,1.5917 11.1277,4.775 2.5409,3.1972 3.7975,8.2097 3.7975,15.0511 v 25.2431 h -2.2478 v -25.3131 c 0,-6.4086 -1.1449,-10.9463 -3.4348,-13.585 -2.2898,-2.6527 -5.3472,-3.9651 -9.159,-3.9651 -4.5516,0 -8.028,1.3263 -10.4156,4.007 -2.3876,2.6668 -3.9093,6.1294 -4.5936,10.3879 0.0281,0.5445 0.0559,1.1029 0.0839,1.6613 0.0278,0.5585 0.0278,1.1169 0.0278,1.6895 v 25.1594 h -2.2478 v -22.6604 h -0.1117 c 0,-0.5165 0,-1.0329 0.0139,-1.5497 0.0141,-0.5165 0.0419,-1.0332 0.0978,-1.5219 -0.0837,-6.2688 -1.2428,-10.6948 -3.5184,-13.2639 -2.2618,-2.5829 -5.2917,-3.8673 -9.1174,-3.8673 -4.4957,0 -7.9302,1.2983 -10.2897,3.8954 -2.3596,2.6107 -3.8954,5.9896 -4.5936,10.1364 v 28.8314 h -2.2478 v -22.6604 h -0.0839 c 0,-0.3767 0,-0.7679 0.0141,-1.1446 0.0139,-0.377 0.0417,-0.8657 0.0698,-1.4383 v -19.0162 z m 101.3221,36.0779 c -1.5216,2.6666 -3.7976,4.8447 -6.8272,6.5203 -3.03,1.6752 -6.702,2.5271 -11.0021,2.5271 -4.1188,0 -7.3579,-1.1311 -9.7036,-3.3789 -2.3318,-2.2479 -3.5045,-5.2915 -3.5045,-9.1032 0,-3.714 1.7453,-6.8134 5.2498,-9.3266 3.5045,-2.5132 7.8885,-3.7698 13.1522,-3.7698 h 12.6354 v -6.4505 c 0,-3.6859 -1.1727,-6.5622 -3.5322,-8.6145 -2.3596,-2.0664 -5.6826,-3.0855 -9.9689,-3.0855 -4.0071,0 -7.2323,0.9632 -9.6616,2.9041 -2.4435,1.9267 -3.672,4.4257 -3.672,7.4835 l -1.8431,-0.0837 -0.0697,-0.2094 c -0.1676,-3.4348 1.1727,-6.3389 4.007,-8.7262 2.8341,-2.3876 6.5761,-3.5884 11.2394,-3.5884 4.7472,0 8.5586,1.2008 11.4208,3.6023 2.8624,2.4015 4.2865,5.864 4.2865,10.3875 v 22.1718 c 0,1.5639 0.0975,3.0716 0.2651,4.5516 0.1817,1.4661 0.4748,2.918 0.8796,4.3701 h -2.4432 c -0.3631,-1.9405 -0.6004,-3.3927 -0.726,-4.3562 -0.1117,-0.9632 -0.1817,-2.0104 -0.1817,-3.1275 z m -17.8293,6.8692 c 4.384,0 8.098,-0.9635 11.1415,-2.9041 3.0439,-1.9267 5.2779,-4.7052 6.6878,-8.2933 v -9.9411 h -12.5098 c -4.5797,0 -8.447,1.0471 -11.6025,3.1694 -3.1414,2.1084 -4.7191,4.7191 -4.7191,7.8327 0,2.9738 1.0051,5.4034 3.0018,7.302 2.0107,1.8851 4.6772,2.8344 8.0003,2.8344 z m 70.5917,-12.7193 c 0,-3.4067 -1.3961,-6.1572 -4.1885,-8.2375 -2.7924,-2.0945 -7.5534,-4.2307 -14.2971,-6.4505 -6.7016,-2.0384 -11.6444,-4.2027 -14.8277,-6.4925 -3.1694,-2.3037 -4.7611,-5.6965 -4.7611,-10.1923 0,-4.4676 1.857,-8.098 5.5848,-10.8623 3.714,-2.7644 8.447,-4.1468 14.1716,-4.1468 5.9476,0 10.7229,1.5219 14.339,4.5796 3.6162,3.0578 5.3612,7.316 5.2495,12.8033 l -0.0836,0.2511 h -1.8709 c 0,-4.4538 -1.6475,-8.1258 -4.9147,-11.0438 -3.2672,-2.9182 -7.5115,-4.384 -12.7193,-4.384 -5.3754,0 -9.6339,1.2566 -12.8033,3.7837 -3.1694,2.5271 -4.7469,5.5009 -4.7469,8.9356 0,3.4345 1.2705,6.2269 3.8254,8.3631 2.5551,2.1503 7.3023,4.2446 14.2554,6.283 6.7575,2.1223 11.7978,4.3421 15.0928,6.6319 3.295,2.2898 4.9567,5.6546 4.9567,10.0945 0,4.5238 -1.9548,8.1538 -5.8502,10.8904 -3.9095,2.7227 -8.7123,4.091 -14.4507,4.091 -5.9619,0 -11.0999,-1.4103 -15.414,-4.2027 -4.3143,-2.7924 -6.3947,-7.1904 -6.2549,-13.1941 l 0.0836,-0.2373 h 1.8289 c 0,5.4034 1.9968,9.3127 5.9757,11.7561 3.9793,2.4432 8.5729,3.6579 13.7807,3.6579 5.2217,0 9.5221,-1.2008 12.9288,-3.6162 3.4067,-2.4154 5.11,-5.4312 5.11,-9.0612 z m 10.2342,-8.9496 c 0,-6.4924 1.7873,-11.7981 5.3754,-15.9168 3.5883,-4.1187 8.2374,-6.1852 13.9759,-6.1852 5.7523,0 10.4156,2.0665 14.004,6.1852 3.5881,4.1187 5.3753,9.4244 5.3753,15.9168 v 1.7173 c 0,6.5063 -1.7872,11.8258 -5.3753,15.9446 -3.5884,4.1187 -8.2236,6.1852 -13.9343,6.1852 -5.7523,0 -10.4295,-2.0665 -14.0176,-6.1852 -3.6023,-4.1188 -5.4034,-9.4383 -5.4034,-15.9446 z m 2.2059,1.7173 c 0,5.5567 1.55,10.2619 4.6633,14.1295 3.1136,3.8534 7.3023,5.7802 12.5518,5.7802 5.1939,0 9.3269,-1.9268 12.4404,-5.8082 3.1133,-3.8673 4.6633,-8.5726 4.6633,-14.1015 v -1.7173 c 0,-5.4314 -1.5639,-10.1086 -4.7052,-14.0179 -3.1275,-3.9095 -7.2882,-5.864 -12.4682,-5.864 -5.2078,0 -9.3685,1.9545 -12.4821,5.864 -3.1133,3.9093 -4.6633,8.5865 -4.6633,14.0179 z m 50.4729,21.264 v -42.0117 h -7.6932 v -2.2478 h 7.6932 v -7.2743 c 0,-4.1746 1.019,-7.4137 3.0435,-9.7036 2.0384,-2.2895 4.8867,-3.4344 8.5309,-3.4344 0.9074,0 1.8011,0.0558 2.6807,0.1675 0.8935,0.1117 1.7453,0.2792 2.5549,0.5304 l -0.3209,2.1223 c -0.8799,-0.2095 -1.6478,-0.377 -2.3179,-0.4607 -0.6701,-0.0978 -1.5219,-0.1536 -2.5548,-0.1536 -2.9461,0 -5.2498,0.9774 -6.9115,2.9041 -1.6614,1.9406 -2.499,4.6074 -2.499,8.028 v 7.2743 h 11.7 v 2.2478 h -11.7 v 42.0117 z m 27.6168,-56.1971 v 11.9376 h 10.8765 v 2.2478 h -10.8765 v 30.6049 c 0,3.6161 0.6143,6.199 1.8431,7.7487 1.2285,1.5359 2.8482,2.3038 4.8727,2.3038 0.726,0 1.3822,-0.0278 1.9545,-0.0837 0.5726,-0.0419 1.3683,-0.1397 2.3738,-0.2792 l 0.4048,2.0104 c -0.6702,0.2094 -1.3822,0.3631 -2.1223,0.447 -0.7399,0.0836 -1.5636,0.1256 -2.4991,0.1256 -2.9741,0 -5.222,-0.9774 -6.7717,-2.9041 -1.5358,-1.9409 -2.3037,-5.0684 -2.3037,-9.3685 v -30.6049 h -8.1816 v -2.2478 h 8.1816 V 664.666 Z" style="fill: #33cc99; fill-rule: evenodd" />
         <path d="m 477.4457,693.4209 39.8923,-30.9826 -12.1298,31.0973 z" style="fill: #64d1a0; fill-rule: evenodd" />
         <path d="m 517.3393,662.4371 17.8477,31.0671 -46.6877,43.2793 z" style="fill: #19a485; fill-rule: evenodd" />
         <path d="m 505.2096,693.5356 29.9774,-0.0314 -46.7734,43.8153 z" style="fill: #f03f09; fill-rule: evenodd" />
         <path d="m 477.4457,693.4209 27.7639,0.1147 -16.796,43.7839 z" style="fill: #2abb9c; fill-rule: evenodd" />
      </g>
   </g>
</svg>